<?xml version="1.0" standalone="no"?>
<!DOCTYPE svg PUBLIC "-//W3C//DTD SVG 20010904//EN"
 "http://www.w3.org/TR/2001/REC-SVG-20010904/DTD/svg10.dtd">
<svg version="1.0" xmlns="http://www.w3.org/2000/svg"
 width="512.000000pt" height="512.000000pt" viewBox="0 0 512.000000 512.000000"
 preserveAspectRatio="xMidYMid meet">
<metadata>
Created by potrace 1.14, written by Peter Selinger 2001-2017
</metadata>
<g transform="translate(0.000000,512.000000) scale(0.100000,-0.100000)"
fill="#000000" stroke="none">
<path d="M2331 5109 c-1013 -90 -1882 -781 -2201 -1749 -91 -276 -125 -491
-125 -800 0 -309 34 -524 125 -800 127 -386 324 -706 613 -999 407 -412 905
-658 1502 -743 118 -17 512 -17 630 0 597 85 1095 332 1502 743 403 408 640
893 725 1484 17 118 17 512 0 630 -48 336 -147 642 -295 910 -491 894 -1463
1414 -2476 1324z m406 -775 c265 -55 490 -240 601 -496 45 -105 64 -202 64
-333 0 -145 -21 -234 -87 -371 -44 -91 -68 -126 -131 -193 -126 -134 -240
-204 -411 -253 -112 -32 -314 -32 -426 0 -170 49 -285 119 -409 251 -88 94
-166 237 -199 366 -25 100 -28 277 -5 383 67 316 330 579 646 647 89 19 264
18 357 -1z m528 -2112 c363 -101 611 -396 641 -764 13 -165 -37 -271 -179
-382 -220 -171 -450 -284 -716 -350 -177 -44 -237 -51 -456 -51 -249 1 -372
20 -584 90 -174 58 -311 125 -457 224 -229 153 -291 232 -301 387 -6 92 15
222 53 323 106 282 374 495 679 540 33 5 326 8 650 7 576 -2 592 -2 670 -24z"/>
</g>
</svg>
